<svg width="18" height="18" viewBox="0 0 18 18" fill="none" xmlns="http://www.w3.org/2000/svg">
<path d="M15.7185 11.4938C15.8715 11.1293 15.4342 10.8188 15.0675 10.9808C14.3344 11.3026 13.5423 11.4681 12.7418 11.4668C9.603 11.4668 7.059 8.97379 7.059 5.89804C7.05785 4.85955 7.35289 3.84227 7.9095 2.96554C8.1225 2.62954 7.86675 2.16454 7.47675 2.26354C4.47 3.03079 2.25 5.70979 2.25 8.89654C2.25 12.6818 5.38125 15.75 9.2445 15.75C12.1695 15.75 14.6745 13.9913 15.7185 11.4938Z" fill="#9F9F9F"/>
<path d="M11.7089 2.32722C11.3114 2.06172 10.8374 2.53572 11.1021 2.93322L11.5746 3.64197C11.7663 3.92934 11.8686 4.26704 11.8686 4.61247C11.8686 4.9579 11.7663 5.29559 11.5746 5.58297L11.1021 6.29172C10.8374 6.68922 11.3121 7.16322 11.7096 6.89772L12.4176 6.42522C12.705 6.23354 13.0427 6.13125 13.3881 6.13125C13.7335 6.13125 14.0712 6.23354 14.3586 6.42522L15.0674 6.89772C15.4649 7.16322 15.9389 6.68922 15.6734 6.29172L15.2009 5.58297C15.0092 5.29559 14.9069 4.9579 14.9069 4.61247C14.9069 4.26704 15.0092 3.92934 15.2009 3.64197L15.6734 2.93322C15.9389 2.53572 15.4649 2.06172 15.0666 2.32722L14.3586 2.79972C14.0712 2.99139 13.7335 3.09368 13.3881 3.09368C13.0427 3.09368 12.705 2.99139 12.4176 2.79972L11.7089 2.32722Z" fill="#9F9F9F"/>
</svg>
