<svg width="18" height="18" viewBox="0 0 18 18" fill="none" xmlns="http://www.w3.org/2000/svg">
<path d="M9 3.20996C9.13261 3.20996 9.25979 3.15728 9.35355 3.06351C9.44732 2.96974 9.5 2.84256 9.5 2.70996V0.954956C9.5 0.822348 9.44732 0.695171 9.35355 0.601403C9.25979 0.507634 9.13261 0.454956 9 0.454956C8.86739 0.454956 8.74021 0.507634 8.64645 0.601403C8.55268 0.695171 8.5 0.822348 8.5 0.954956V2.70996C8.5 2.84256 8.55268 2.96974 8.64645 3.06351C8.74021 3.15728 8.86739 3.20996 9 3.20996Z" fill="black"/>
<path d="M9 14.79C8.86739 14.79 8.74021 14.8427 8.64645 14.9365C8.55268 15.0303 8.5 15.1574 8.5 15.29V17.045C8.5 17.1776 8.55268 17.3048 8.64645 17.3986C8.74021 17.4924 8.86739 17.545 9 17.545C9.13261 17.545 9.25979 17.4924 9.35355 17.3986C9.44732 17.3048 9.5 17.1776 9.5 17.045V15.29C9.5 15.1574 9.44732 15.0303 9.35355 14.9365C9.25979 14.8427 9.13261 14.79 9 14.79Z" fill="black"/>
<path d="M4.20007 4.90495C4.29572 4.98686 4.41876 5.02967 4.5446 5.02481C4.67044 5.01995 4.78981 4.96778 4.87885 4.87873C4.9679 4.78968 5.02007 4.67031 5.02493 4.54448C5.02979 4.41864 4.98699 4.2956 4.90507 4.19995L3.66507 2.95995C3.56942 2.87804 3.44638 2.83523 3.32055 2.84009C3.19471 2.84496 3.07534 2.89712 2.98629 2.98617C2.89724 3.07522 2.84508 3.19459 2.84022 3.32042C2.83536 3.44626 2.87816 3.5693 2.96007 3.66495L4.20007 4.90495Z" fill="black"/>
<path d="M13.7998 13.095C13.7042 13.013 13.5811 12.9702 13.4553 12.9751C13.3295 12.98 13.2101 13.0321 13.1211 13.1212C13.032 13.2102 12.9798 13.3296 12.975 13.4554C12.9701 13.5813 13.0129 13.7043 13.0948 13.8L14.3348 15.04C14.4305 15.1219 14.5535 15.1647 14.6794 15.1598C14.8052 15.155 14.9246 15.1028 15.0136 15.0137C15.1027 14.9247 15.1548 14.8053 15.1597 14.6795C15.1646 14.5536 15.1218 14.4306 15.0398 14.335L13.7998 13.095Z" fill="black"/>
<path d="M3.21008 9C3.21008 8.86739 3.1574 8.74021 3.06363 8.64645C2.96986 8.55268 2.84269 8.5 2.71008 8.5H0.955078C0.82247 8.5 0.695293 8.55268 0.601525 8.64645C0.507757 8.74021 0.455078 8.86739 0.455078 9C0.455078 9.13261 0.507757 9.25979 0.601525 9.35355C0.695293 9.44732 0.82247 9.5 0.955078 9.5H2.71008C2.84269 9.5 2.96986 9.44732 3.06363 9.35355C3.1574 9.25979 3.21008 9.13261 3.21008 9Z" fill="black"/>
<path d="M17.0441 8.5H15.2891C15.1565 8.5 15.0293 8.55268 14.9355 8.64645C14.8417 8.74021 14.7891 8.86739 14.7891 9C14.7891 9.13261 14.8417 9.25979 14.9355 9.35355C15.0293 9.44732 15.1565 9.5 15.2891 9.5H17.0441C17.1767 9.5 17.3038 9.44732 17.3976 9.35355C17.4914 9.25979 17.5441 9.13261 17.5441 9C17.5441 8.86739 17.4914 8.74021 17.3976 8.64645C17.3038 8.55268 17.1767 8.5 17.0441 8.5Z" fill="black"/>
<path d="M4.20007 13.095L2.96007 14.335C2.87816 14.4306 2.83536 14.5536 2.84022 14.6795C2.84508 14.8053 2.89724 14.9247 2.98629 15.0137C3.07534 15.1028 3.19471 15.155 3.32055 15.1598C3.44638 15.1647 3.56942 15.1219 3.66507 15.04L4.90507 13.8C4.98699 13.7043 5.02979 13.5813 5.02493 13.4554C5.02007 13.3296 4.9679 13.2102 4.87885 13.1212C4.78981 13.0321 4.67044 12.98 4.5446 12.9751C4.41876 12.9702 4.29572 13.013 4.20007 13.095Z" fill="black"/>
<path d="M13.7998 4.90495L15.0398 3.66495C15.1218 3.5693 15.1646 3.44626 15.1597 3.32042C15.1548 3.19459 15.1027 3.07522 15.0136 2.98617C14.9246 2.89712 14.8052 2.84496 14.6794 2.84009C14.5535 2.83523 14.4305 2.87804 14.3348 2.95995L13.0948 4.19995C13.0129 4.2956 12.9701 4.41864 12.975 4.54448C12.9798 4.67031 13.032 4.78968 13.1211 4.87873C13.2101 4.96778 13.3295 5.01995 13.4553 5.02481C13.5811 5.02967 13.7042 4.98686 13.7998 4.90495Z" fill="black"/>
<path d="M9 14C11.7614 14 14 11.7614 14 9C14 6.23858 11.7614 4 9 4C6.23858 4 4 6.23858 4 9C4 11.7614 6.23858 14 9 14Z" fill="black"/>
</svg>
