<svg width="25" height="26" viewBox="0 0 25 26" fill="none" xmlns="http://www.w3.org/2000/svg">
<g clip-path="url(#clip0_37_47)">
<path d="M21.9453 2.53177C21.2985 1.94135 18.679 0.0433531 12.8453 0.0184365C12.8453 0.0184365 5.96159 -0.392147 2.60832 2.67477C0.743107 4.53377 0.0898463 7.25619 0.0148463 10.6329C-0.0601537 14.0097 -0.143849 20.3385 5.9768 22.0589H5.98224L5.9768 24.6794C5.9768 24.6794 5.93658 25.7411 6.63659 25.9545C7.48224 26.2189 7.98224 25.4107 8.79202 24.5419C9.2355 24.0641 9.84637 23.3643 10.3105 22.8302C12.9703 23.0757 15.6526 22.8717 18.2442 22.2268L18.0812 22.2614C18.9268 21.9874 23.7116 21.3774 24.4855 15.0497C25.2942 8.51719 24.1007 4.39619 21.9453 2.53177ZM22.654 14.573C21.9942 19.8543 18.1181 20.1901 17.4051 20.4176C15.8485 20.8119 14.0616 21.0373 12.2214 21.0373C11.6931 21.0373 11.1692 21.0189 10.6507 20.982L10.7203 20.9864C10.7203 20.9864 8.07028 24.1703 7.24528 24.9979C6.97572 25.2666 6.67898 25.2449 6.68441 24.7087C6.68441 24.3588 6.70506 20.3559 6.70506 20.3559C1.52354 18.9237 1.82354 13.533 1.88441 10.7174C1.94528 7.90185 2.47572 5.58785 4.05506 4.03435C6.89419 1.4701 12.7388 1.85035 12.7388 1.85035C17.6768 1.87094 20.0409 3.35402 20.5909 3.85127C22.4105 5.40585 23.3377 9.12385 22.654 14.5719V14.573ZM15.5768 10.4694V10.4845C15.5745 10.5689 15.5398 10.6491 15.4799 10.7088C15.4199 10.7684 15.3393 10.8028 15.2547 10.8048C15.17 10.8069 15.0878 10.7765 15.025 10.72C14.9621 10.6634 14.9235 10.5849 14.917 10.5008V10.4997C14.9391 10.2735 14.9118 10.0452 14.8368 9.83061C14.7618 9.61599 14.641 9.42015 14.4827 9.2566C14.3243 9.09305 14.1323 8.96568 13.9198 8.88328C13.7073 8.80089 13.4794 8.76543 13.2518 8.77935H13.2562C13.1717 8.77283 13.093 8.73422 13.0362 8.6715C12.9795 8.60878 12.9491 8.52674 12.9514 8.44232C12.9536 8.35791 12.9883 8.27758 13.0482 8.21793C13.1082 8.15827 13.1888 8.12385 13.2735 8.12177H13.292H13.2909L13.3659 8.12069C13.6694 8.12058 13.9696 8.18266 14.248 8.30305C14.5264 8.42344 14.777 8.59959 14.9842 8.82054C15.1914 9.0415 15.3509 9.30255 15.4526 9.58749C15.5544 9.87243 15.5963 10.1752 15.5757 10.4769V10.4704L15.5768 10.4694ZM16.6105 11.0446C16.6616 8.89094 15.3116 7.20527 12.7485 7.01677C12.7041 7.01538 12.6603 7.00506 12.62 6.98642C12.5796 6.96778 12.5434 6.9412 12.5136 6.90829C12.4838 6.87537 12.4609 6.83679 12.4464 6.79486C12.432 6.75293 12.4261 6.70852 12.4293 6.66429C12.4324 6.62005 12.4445 6.57691 12.4648 6.53744C12.4851 6.49797 12.5131 6.46299 12.5473 6.4346C12.5815 6.40621 12.6211 6.38499 12.6637 6.37222C12.7063 6.35945 12.7511 6.35538 12.7953 6.36027H12.7942H12.8127C13.4209 6.36025 14.0228 6.48415 14.5813 6.72436C15.1397 6.96458 15.643 7.31603 16.0603 7.75715C16.4775 8.19827 16.7999 8.71973 17.0076 9.28953C17.2153 9.85933 17.304 10.4654 17.2681 11.0706L17.2692 11.0587C17.2634 11.1426 17.2255 11.2212 17.1634 11.2782C17.1013 11.3352 17.0196 11.3664 16.9352 11.3653C16.8508 11.3642 16.7699 11.3309 16.7094 11.2723C16.6488 11.2136 16.613 11.1341 16.6094 11.05V11.0414L16.6105 11.0446ZM19.0018 11.726V11.7282C18.9974 11.8122 18.9609 11.8913 18.8999 11.9493C18.8388 12.0073 18.7578 12.0399 18.6735 12.0403C18.5891 12.0407 18.5077 12.009 18.4461 11.9515C18.3845 11.8941 18.3473 11.8154 18.342 11.7314C18.3159 7.59094 15.5453 5.33652 12.1877 5.31269C12.1444 5.31269 12.1016 5.3042 12.0616 5.2877C12.0217 5.2712 11.9854 5.24702 11.9548 5.21654C11.9242 5.18606 11.8999 5.14988 11.8834 5.11005C11.8668 5.07023 11.8583 5.02754 11.8583 4.98444C11.8583 4.94133 11.8668 4.89865 11.8834 4.85882C11.8999 4.81899 11.9242 4.78281 11.9548 4.75233C11.9854 4.72185 12.0217 4.69767 12.0616 4.68117C12.1016 4.66468 12.1444 4.65619 12.1877 4.65619C15.9475 4.68219 18.9692 7.2681 18.9996 11.7249L19.0018 11.726ZM18.4312 16.7072V16.7169C17.8812 17.6822 16.8518 18.7482 15.792 18.408L15.7822 18.3929C13.8928 17.6999 12.1216 16.721 10.5312 15.4906L10.5757 15.5231C9.78428 14.8968 9.06633 14.1834 8.4355 13.3965L8.41485 13.3694C7.84366 12.6528 7.33389 11.8896 6.89093 11.0879L6.84746 11.0024C6.32338 10.1412 5.88888 9.22903 5.55072 8.27994L5.51811 8.17377C5.1768 7.11752 6.24093 6.0916 7.21485 5.54344H7.22463C7.41623 5.4212 7.64631 5.37362 7.87089 5.40979C8.09547 5.44596 8.2988 5.56335 8.44202 5.73952L8.44311 5.74169C8.44311 5.74169 9.07463 6.49244 9.34528 6.86402C9.59963 7.2096 9.94202 7.76319 10.1192 8.07194C10.2526 8.2829 10.3069 8.53408 10.2725 8.78107C10.2381 9.02807 10.1172 9.255 9.93115 9.42177L9.93006 9.42285L9.31919 9.91035C9.22395 10.002 9.15035 10.1136 9.10372 10.237C9.0571 10.3605 9.03862 10.4928 9.04963 10.6243V10.621C9.35211 11.6256 9.89802 12.5406 10.6392 13.2852C11.3804 14.0297 12.2941 14.581 13.2996 14.8904L13.3453 14.9024C13.4766 14.9127 13.6085 14.894 13.7317 14.8478C13.855 14.8015 13.9665 14.7288 14.0583 14.6348L14.5475 14.0259C14.7155 13.8397 14.9443 13.7189 15.1933 13.685C15.4423 13.6511 15.6952 13.7062 15.9072 13.8407L15.9029 13.8385C16.7866 14.3401 17.5507 14.8915 18.2475 15.5166L18.2355 15.5058C18.4122 15.6462 18.5299 15.8475 18.5653 16.07C18.6007 16.2925 18.5513 16.5202 18.4268 16.7083L18.429 16.705L18.4312 16.7072Z" fill="black"/>
</g>
<defs>
<clipPath id="clip0_37_47">
<rect width="25" height="26" fill="white"/>
</clipPath>
</defs>
</svg>
