<svg width="42" height="11" viewBox="0 0 42 11" fill="none" xmlns="http://www.w3.org/2000/svg">
<path d="M35.4882 0.354858C35.7126 0.153071 36.0531 0.153071 36.2776 0.354858L38.6174 2.45865C40.4246 4.08353 40.4246 6.91647 38.6174 8.54135L36.2776 10.6451C36.0531 10.8469 35.7126 10.8469 35.4882 10.6451V10.6451C35.2274 10.4106 35.2274 10.0017 35.4882 9.76723L37.6171 7.85309C39.0153 6.59593 39.0153 4.40407 37.6171 3.14691L35.4882 1.23277C35.2274 0.998255 35.2274 0.589376 35.4882 0.354858V0.354858Z" fill="white"/>
<path d="M41 5.49995C41 5.77609 40.7761 5.99995 40.5 5.99995L0.5 6C0.223858 6 1.957e-08 5.77614 4.37112e-08 5.5C6.78523e-08 5.22386 0.223858 5 0.5 5L40.5 4.99995C40.7761 4.99995 41 5.22381 41 5.49995Z" fill="white"/>
</svg>
