<svg width="100%" height="508" viewBox="0 0 1400 508" fill="none" xmlns="http://www.w3.org/2000/svg">
<path opacity="0.2" d="M1441 369C1308.67 461.833 970.4 600.8 676 414C308 180.5 -10.5 292 -39 506" stroke="white" stroke-width="2"/>
<path opacity="0.2" d="M1441 265C1308.67 357.833 970.4 496.8 676 310C308 76.5 -10.5 188 -39 402" stroke="white" stroke-width="2"/>
<path opacity="0.2" d="M1441 146C1308.67 238.833 970.4 377.8 676 191C308 -42.5 -10.5 69 -39 283" stroke="white" stroke-width="2"/>
<path opacity="0.2" d="M1441 309.161C1308.67 401.995 970.4 540.961 676 354.161C308 120.661 -10.5 232.161 -39 446.161" stroke="white" stroke-width="2"/>
<path opacity="0.2" d="M1441 205.161C1308.67 297.995 970.4 436.961 676 250.161C308 16.6613 -10.5 128.161 -39 342.161" stroke="white" stroke-width="2"/>
<path opacity="0.2" d="M1441 86.1613C1308.67 178.995 970.4 317.961 676 131.161C308 -102.339 -10.5 9.1613 -39 223.161" stroke="white" stroke-width="2"/>
</svg>
