<svg width="158" height="40" viewBox="0 0 158 40" fill="none" xmlns="http://www.w3.org/2000/svg">
<path d="M0 14.059C0 14.059 2.09962 15.5481 6.46333 24.4451C10.827 33.342 12.0238 37.0597 21.9445 37.0597C21.9445 37.0597 18.0952 35.2043 15.1033 28.529C12.1113 21.8537 8.04855 14.059 0 14.059Z" fill="#262626"/>
<path d="M9.16797 14.5115C9.16797 14.5115 12.4644 15.2025 16.6811 24.1582C20.5899 32.4781 23.1445 38.6974 32.1623 36.7625C32.1623 36.7625 28.313 34.9071 25.3246 28.2318C22.3361 21.5565 17.2095 14.5115 9.16797 14.5115Z" fill="#262626"/>
<path d="M18.7891 15.548C21.5978 17.5868 23.907 20.2222 25.5463 23.2599C28.1044 28.1558 33.063 37.3568 39.6768 38.3968C46.2906 39.4368 54.1047 40.919 60.2671 37.3602C60.2671 37.3602 57.0337 37.7299 55.368 36.6934C53.7023 35.6569 53.1144 34.4683 52.362 34.4683C52.362 34.4683 51.6096 29.4204 50.7068 27.2125C50.7068 27.2125 49.8075 28.1039 49.2056 28.8433C49.2056 28.8433 50.1084 24.9874 49.657 21.8709C49.657 21.8709 43.1937 26.4697 39.4353 26.4697C42.3184 24.9087 45.0378 23.0696 47.5539 20.9795C50.5987 18.402 53.1885 15.3429 55.2175 11.927C55.2175 11.927 53.4153 8.21624 48.0018 5.25174C50.5598 5.72153 52.9506 6.83817 54.941 8.49265C55.2172 6.75225 56.1252 5.17048 57.4956 4.04245C57.4956 4.04245 56.4458 6.41612 56.4458 10.1269C56.4458 13.8377 63.0561 16.6571 65.3132 15.9143C67.5703 15.1714 66.062 12.8046 65.7611 11.9063C65.4601 11.008 64.3893 5.67327 64.3893 3.45508C64.3893 3.45508 62.5837 0.0414116 54.0172 0.345463C45.4508 0.649514 45.3003 0.642603 42.2943 4.20484C39.2884 7.76707 35.3971 12.9463 32.9895 13.5406C30.5819 14.1349 27.1281 14.28 27.5795 15.4686C28.0309 16.6571 30.8864 19.6147 30.7289 24.0753C30.7359 24.0753 27.7299 12.352 18.7891 15.548Z" fill="#262626"/>
<path d="M65.8301 5.15503C65.8301 5.15503 66.2815 12.4108 67.3313 12.4108C68.3811 12.4108 69.7389 11.9651 69.2875 9.1457C68.836 6.32632 66.7329 5.60074 65.8301 5.15503Z" fill="#262626"/>
<path d="M68.0835 13.475C68.0835 13.475 70.4876 14.8121 70.7885 17.0372C71.0895 19.2623 68.9864 20.3023 66.5893 20.1468C64.1922 19.9913 55.9162 19.7011 54.114 20.1468C52.3119 20.5925 52.9103 17.0372 54.415 15.3995C55.9197 13.7618 56.5951 13.5441 57.6449 14.432C58.6947 15.32 67.8596 21.1074 68.0835 13.475Z" fill="#262626"/>
<path d="M66.884 21.4771C66.5831 21.4771 55.0106 21.332 53.0545 22.0714C51.0983 22.8108 51.2523 26.6736 53.0545 27.7102C54.8567 28.7467 62.8247 29.0473 64.326 28.8987C65.8272 28.7501 67.7833 28.1559 68.0843 25.3365C68.3852 22.5171 67.1884 21.4771 66.884 21.4771Z" fill="#262626"/>
<path d="M65.2291 30.0873C63.2765 29.6416 54.1082 29.1959 53.3558 30.0873C52.6034 30.9787 53.0548 33.7946 55.3084 34.9832C57.562 36.1718 61.9222 36.4655 63.7279 35.7261C65.5336 34.9867 67.1888 30.5296 65.2291 30.0873Z" fill="#262626"/>
<path d="M80.8539 31.6144L80.6019 7.97789C80.5823 6.01313 81.3534 4.12103 82.7457 2.71718C84.138 1.31332 86.0377 0.512506 88.0276 0.490627L97.1959 0.397339L97.2519 5.78734L90.4981 5.85644C90.0013 5.86191 89.5269 6.06181 89.1792 6.41226C88.8315 6.76272 88.6388 7.23508 88.6435 7.72566L88.738 16.4188L96.0481 16.3427L96.1076 21.8709L88.7974 21.947L88.9829 39.4645C86.8513 39.4857 84.7982 38.671 83.2742 37.1993C81.7502 35.7276 80.8797 33.719 80.8539 31.6144Z" fill="#262626"/>
<path d="M101.549 31.5764V0.480225C103.667 0.483886 105.697 1.31729 107.194 2.79749C108.69 4.27768 109.531 6.28371 109.531 8.37519V39.4713C107.412 39.4686 105.382 38.6355 103.885 37.1551C102.388 35.6747 101.548 33.6681 101.549 31.5764Z" fill="#262626"/>
<path d="M125.823 40C123.388 40 121.357 39.5589 119.731 38.6767C118.092 37.7812 116.799 36.3774 116.05 34.6826L116.025 34.6273C115.679 33.8561 115.516 33.0168 115.548 32.1738C115.581 31.3308 115.809 30.5063 116.214 29.7636C116.62 29.0209 117.192 28.3797 117.887 27.889C118.582 27.3983 119.381 27.0712 120.224 26.9328L121.53 26.7151C121.563 28.0742 121.736 29.4264 122.047 30.7507C122.226 31.66 122.666 32.4995 123.314 33.1693C123.887 33.7006 124.649 33.9864 125.435 33.9639C126.475 33.9639 127.182 33.6426 127.555 33C127.938 32.324 128.132 31.5595 128.115 30.7852C128.166 29.3237 127.749 27.8837 126.922 26.6702C126.007 25.4385 124.95 24.3161 123.773 23.3256L119.678 19.7841C118.257 18.6104 117.045 17.2088 116.095 15.6379C115.162 14.097 114.695 12.2035 114.695 9.95772C114.695 6.74906 115.646 4.28555 117.547 2.5672C119.449 0.848851 122.061 -0.00686874 125.386 4.15169e-05C127.367 4.15169e-05 128.991 0.321368 130.26 0.964022C131.459 1.54635 132.478 2.43521 133.21 3.53809C133.91 4.61221 134.405 5.80285 134.673 7.05195L135.482 10.7869L131.632 11.3501C130.795 11.4735 129.942 11.2659 129.259 10.7724C128.575 10.2788 128.117 9.53918 127.982 8.71387C127.89 7.94268 127.588 7.21064 127.108 6.59588C126.858 6.32907 126.55 6.12125 126.208 5.98786C125.866 5.85447 125.497 5.79894 125.13 5.82539C124.719 5.79929 124.308 5.88149 123.939 6.06359C123.57 6.24569 123.257 6.52118 123.031 6.86192C122.58 7.54107 122.342 8.33697 122.348 9.14922C122.297 10.3508 122.63 11.5378 123.3 12.5422C124.059 13.5596 124.933 14.4871 125.907 15.3063L129.907 18.7614C131.554 20.1662 132.99 21.7948 134.173 23.5986C135.356 25.4137 135.948 27.6526 135.95 30.3153C135.974 32.0489 135.538 33.7585 134.684 35.2734C133.853 36.7269 132.63 37.9233 131.149 38.7286C129.514 39.5977 127.68 40.0357 125.823 40Z" fill="#262626"/>
<path d="M143.912 31.4796V6.40231H143.825C143.036 6.40368 142.255 6.2515 141.526 5.9545C140.797 5.6575 140.135 5.22149 139.577 4.67144C139.019 4.12139 138.576 3.46808 138.274 2.74891C137.972 2.02973 137.816 1.2588 137.816 0.480225H152.003C153.594 0.480225 155.119 1.10416 156.244 2.21476C157.369 3.32537 158.001 4.83168 158.001 6.40231H152.003V39.4713C149.857 39.4704 147.799 38.628 146.282 37.1294C144.765 35.6308 143.912 33.5986 143.912 31.4796Z" fill="#262626"/>
</svg>
