<svg width="101" height="101" viewBox="0 0 101 101" fill="none" xmlns="http://www.w3.org/2000/svg">
<circle cx="50.5" cy="50.5" r="50.5" fill="url(#paint0_linear_37_80)"/>
<path d="M47.2695 71.5C47.2625 71.4997 47.2495 71.4991 47.2314 71.4978C47.182 71.4942 47.0984 71.4862 46.9929 71.4686C46.7723 71.4319 46.5087 71.3621 46.2694 71.2424C46.0379 71.1267 45.8673 70.9844 45.75 70.8086C45.6411 70.6452 45.5 70.3375 45.5 69.75C45.5 68.3535 46.266 65.0649 48.7685 62.1453C51.1892 59.3212 55.3154 56.75 62.25 56.75C69.1846 56.75 73.3108 59.3212 75.7315 62.1453C78.234 65.0649 79 68.3535 79 69.75C79 70.3375 78.8589 70.6452 78.75 70.8086C78.6327 70.9844 78.4621 71.1267 78.2306 71.2424C77.9913 71.3621 77.7277 71.4319 77.5071 71.4686C77.4016 71.4862 77.318 71.4942 77.2686 71.4978C77.2505 71.4991 77.2375 71.4997 77.2305 71.5H47.2695ZM68.7907 46.2907C67.056 48.0254 64.7033 49 62.25 49C59.7967 49 57.444 48.0254 55.7093 46.2907C53.9745 44.556 53 42.2033 53 39.75C53 37.2967 53.9745 34.944 55.7093 33.2093C57.444 31.4746 59.7967 30.5 62.25 30.5C64.7033 30.5 67.056 31.4746 68.7907 33.2093C70.5254 34.944 71.5 37.2967 71.5 39.75C71.5 42.2033 70.5254 44.556 68.7907 46.2907Z" stroke="#1E1E1E" stroke-width="4"/>
<path fill-rule="evenodd" clip-rule="evenodd" d="M40.56 73.5C40.0041 72.3293 39.7268 71.0458 39.75 69.75C39.75 64.6688 42.3 59.4375 47.01 55.8C44.6591 55.0757 42.2098 54.7214 39.75 54.75C24.75 54.75 21 66 21 69.75C21 73.5 24.75 73.5 24.75 73.5H40.56Z" fill="#1E1E1E"/>
<path d="M37.875 51C40.3614 51 42.746 50.0123 44.5041 48.2541C46.2623 46.496 47.25 44.1114 47.25 41.625C47.25 39.1386 46.2623 36.754 44.5041 34.9959C42.746 33.2377 40.3614 32.25 37.875 32.25C35.3886 32.25 33.004 33.2377 31.2459 34.9959C29.4877 36.754 28.5 39.1386 28.5 41.625C28.5 44.1114 29.4877 46.496 31.2459 48.2541C33.004 50.0123 35.3886 51 37.875 51Z" fill="#1E1E1E"/>
<defs>
<linearGradient id="paint0_linear_37_80" x1="50.5" y1="0" x2="50.5" y2="101" gradientUnits="userSpaceOnUse">
<stop stop-color="#E2E2E2"/>
<stop offset="1" stop-color="#D5D5D5"/>
</linearGradient>
</defs>
</svg>
