<svg width="101" height="101" viewBox="0 0 101 101" fill="none" xmlns="http://www.w3.org/2000/svg">
<circle cx="50.5" cy="50.5" r="50.5" fill="url(#paint0_linear_37_90)"/>
<path d="M53.3629 58.8793L50.2902 61.7902C49.9668 62.2754 49.4188 62.5 48.8438 62.5H45.25V66.0938C45.25 67.2887 44.2887 68.25 43.0938 68.25H39.5V71.8438C39.5 73.0387 38.5387 74 37.3438 74H30.1562C28.9658 74 28 73.0387 28 71.8438V64.6562C28 64.0812 28.2272 63.5332 28.6315 63.1289L43.1207 48.6371C42.6355 47.1187 42.375 45.4926 42.375 43.8125C42.375 35.0797 49.4547 28 58.1875 28C66.9203 28 74 35.0797 74 43.8125C74 52.5453 66.9203 59.625 58.1875 59.625C56.5074 59.625 54.8812 59.3645 53.3629 58.8793ZM61.7812 43.8125C63.7668 43.8125 65.375 42.2043 65.375 40.2188C65.375 38.2332 63.7668 36.625 61.7812 36.625C59.7957 36.625 58.1875 38.2332 58.1875 40.2188C58.1875 42.2043 59.7957 43.8125 61.7812 43.8125Z" fill="#1E1E1E"/>
<defs>
<linearGradient id="paint0_linear_37_90" x1="50.5" y1="0" x2="50.5" y2="101" gradientUnits="userSpaceOnUse">
<stop stop-color="#E2E2E2"/>
<stop offset="1" stop-color="#D5D5D5"/>
</linearGradient>
</defs>
</svg>
