<svg width="1397" height="1472" viewBox="0 0 1397 1472" fill="none" xmlns="http://www.w3.org/2000/svg">
<g opacity="0.08">
<path d="M497.906 72.5424L592.173 38.1801H727.724L633.457 72.5424H497.906Z" stroke="url(#paint0_linear_80_242)"/>
<rect x="495.574" y="80.7756" width="136.431" height="136.431" stroke="url(#paint1_linear_80_242)"/>
<path d="M640.24 216.981V80.6203L730.057 46.4422V182.803L640.24 216.981Z" stroke="url(#paint2_linear_80_242)"/>
<path d="M2.83161 153.136L97.0986 118.773H232.65L138.383 153.136H2.83161Z" stroke="url(#paint3_linear_80_242)"/>
<rect x="0.5" y="161.369" width="136.431" height="136.431" stroke="url(#paint4_linear_80_242)"/>
<path d="M145.166 297.575V161.214L234.983 127.035V263.397L145.166 297.575Z" stroke="url(#paint5_linear_80_242)"/>
<path d="M779.459 385.496L873.726 351.133H1009.28L915.01 385.496H779.459Z" stroke="url(#paint6_linear_80_242)"/>
<rect x="777.127" y="393.729" width="136.431" height="136.431" stroke="url(#paint7_linear_80_242)"/>
<path d="M921.793 529.935V393.574L1011.61 359.396V495.757L921.793 529.935Z" stroke="url(#paint8_linear_80_242)"/>
<path d="M284.382 466.089L378.649 431.727H514.201L419.934 466.089H284.382Z" stroke="url(#paint9_linear_80_242)"/>
<rect x="282.051" y="474.322" width="136.431" height="136.431" stroke="url(#paint10_linear_80_242)"/>
<path d="M426.717 610.528V474.167L516.534 439.989V576.35L426.717 610.528Z" stroke="url(#paint11_linear_80_242)"/>
<path d="M635.021 229.542L729.288 195.18H864.839L770.572 229.542H635.021Z" stroke="url(#paint12_linear_80_242)"/>
<rect x="632.689" y="237.776" width="136.431" height="136.431" stroke="url(#paint13_linear_80_242)"/>
<path d="M777.355 373.981V237.62L867.173 203.442V339.803L777.355 373.981Z" stroke="url(#paint14_linear_80_242)"/>
<path d="M139.945 310.136L234.212 275.773H369.763L275.496 310.136H139.945Z" stroke="url(#paint15_linear_80_242)"/>
<rect x="137.613" y="318.369" width="136.431" height="136.431" stroke="url(#paint16_linear_80_242)"/>
<path d="M282.279 454.575V318.214L372.096 284.036V420.397L282.279 454.575Z" stroke="url(#paint17_linear_80_242)"/>
<path d="M916.572 542.496L1010.84 508.133H1146.39L1052.12 542.496H916.572Z" stroke="url(#paint18_linear_80_242)"/>
<rect x="914.24" y="550.729" width="136.431" height="136.431" stroke="url(#paint19_linear_80_242)"/>
<path d="M1058.91 686.935V550.574L1148.72 516.396V652.757L1058.91 686.935Z" stroke="url(#paint20_linear_80_242)"/>
<path d="M421.5 623.089L515.767 588.727H651.318L557.051 623.089H421.5Z" stroke="url(#paint21_linear_80_242)"/>
<rect x="419.168" y="631.323" width="136.431" height="136.431" stroke="url(#paint22_linear_80_242)"/>
<path d="M563.834 767.528V631.167L653.651 596.989V733.35L563.834 767.528Z" stroke="url(#paint23_linear_80_242)"/>
<path d="M744.918 34.8624L839.184 0.5H974.736L880.469 34.8624H744.918Z" stroke="url(#paint24_linear_80_242)"/>
<rect x="742.586" y="43.0956" width="136.431" height="136.431" stroke="url(#paint25_linear_80_242)"/>
<path d="M887.252 179.301V42.9403L977.069 8.76211V145.123L887.252 179.301Z" stroke="url(#paint26_linear_80_242)"/>
<path d="M249.843 115.456L344.11 81.0934H479.661L385.395 115.456H249.843Z" stroke="url(#paint27_linear_80_242)"/>
<rect x="247.512" y="123.689" width="136.431" height="136.431" stroke="url(#paint28_linear_80_242)"/>
<path d="M392.178 259.895V123.534L481.995 89.3555V225.717L392.178 259.895Z" stroke="url(#paint29_linear_80_242)"/>
<path d="M1026.47 347.816L1120.74 313.453H1256.29L1162.02 347.816H1026.47Z" stroke="url(#paint30_linear_80_242)"/>
<rect x="1024.14" y="356.049" width="136.431" height="136.431" stroke="url(#paint31_linear_80_242)"/>
<path d="M1168.81 492.255V355.894L1258.62 321.716V458.077L1168.81 492.255Z" stroke="url(#paint32_linear_80_242)"/>
<path d="M531.4 428.409L625.667 394.047H761.218L666.951 428.409H531.4Z" stroke="url(#paint33_linear_80_242)"/>
<rect x="529.068" y="436.642" width="136.431" height="136.431" stroke="url(#paint34_linear_80_242)"/>
<path d="M673.734 572.848V436.487L763.551 402.309V538.67L673.734 572.848Z" stroke="url(#paint35_linear_80_242)"/>
<path d="M882.033 191.862L976.3 157.5H1111.85L1017.58 191.862H882.033Z" stroke="url(#paint36_linear_80_242)"/>
<rect x="879.701" y="200.096" width="136.431" height="136.431" stroke="url(#paint37_linear_80_242)"/>
<path d="M1024.37 336.302V199.94L1114.18 165.762V302.123L1024.37 336.302Z" stroke="url(#paint38_linear_80_242)"/>
<path d="M386.959 272.456L481.226 238.093H616.777L522.51 272.456H386.959Z" stroke="url(#paint39_linear_80_242)"/>
<rect x="384.627" y="280.689" width="136.431" height="136.431" stroke="url(#paint40_linear_80_242)"/>
<path d="M529.293 416.895V280.534L619.11 246.355V382.717L529.293 416.895Z" stroke="url(#paint41_linear_80_242)"/>
<path d="M1163.59 504.816L1257.85 470.453H1393.4L1299.14 504.816H1163.59Z" stroke="url(#paint42_linear_80_242)"/>
<rect x="1161.25" y="513.049" width="136.431" height="136.431" stroke="url(#paint43_linear_80_242)"/>
<path d="M1305.92 649.255V512.894L1395.74 478.715V615.077L1305.92 649.255Z" stroke="url(#paint44_linear_80_242)"/>
<path d="M668.509 585.409L762.776 551.047H898.327L804.061 585.409H668.509Z" stroke="url(#paint45_linear_80_242)"/>
<rect x="666.178" y="593.643" width="136.431" height="136.431" stroke="url(#paint46_linear_80_242)"/>
<path d="M810.844 729.848V593.487L900.661 559.309V695.67L810.844 729.848Z" stroke="url(#paint47_linear_80_242)"/>
<path d="M497.906 775.543L592.173 741.18H727.724L633.457 775.543H497.906Z" stroke="url(#paint48_linear_80_242)"/>
<rect x="495.574" y="783.776" width="136.431" height="136.431" stroke="url(#paint49_linear_80_242)"/>
<path d="M640.24 919.982V783.62L730.057 749.442V885.803L640.24 919.982Z" stroke="url(#paint50_linear_80_242)"/>
<path d="M2.83161 856.136L97.0986 821.773H232.65L138.383 856.136H2.83161Z" stroke="url(#paint51_linear_80_242)"/>
<rect x="0.5" y="864.369" width="136.431" height="136.431" stroke="url(#paint52_linear_80_242)"/>
<path d="M145.166 1000.57V864.214L234.983 830.036V966.397L145.166 1000.57Z" stroke="url(#paint53_linear_80_242)"/>
<path d="M779.459 1088.5L873.726 1054.13H1009.28L915.01 1088.5H779.459Z" stroke="url(#paint54_linear_80_242)"/>
<rect x="777.127" y="1096.73" width="136.431" height="136.431" stroke="url(#paint55_linear_80_242)"/>
<path d="M921.793 1232.93V1096.57L1011.61 1062.4V1198.76L921.793 1232.93Z" stroke="url(#paint56_linear_80_242)"/>
<path d="M284.382 1169.09L378.649 1134.73H514.201L419.934 1169.09H284.382Z" stroke="url(#paint57_linear_80_242)"/>
<rect x="282.051" y="1177.32" width="136.431" height="136.431" stroke="url(#paint58_linear_80_242)"/>
<path d="M426.717 1313.53V1177.17L516.534 1142.99V1279.35L426.717 1313.53Z" stroke="url(#paint59_linear_80_242)"/>
<path d="M635.021 932.542L729.288 898.18H864.839L770.572 932.542H635.021Z" stroke="url(#paint60_linear_80_242)"/>
<rect x="632.689" y="940.775" width="136.431" height="136.431" stroke="url(#paint61_linear_80_242)"/>
<path d="M777.355 1076.98V940.62L867.173 906.442V1042.8L777.355 1076.98Z" stroke="url(#paint62_linear_80_242)"/>
<path d="M139.945 1013.14L234.212 978.773H369.763L275.496 1013.14H139.945Z" stroke="url(#paint63_linear_80_242)"/>
<rect x="137.613" y="1021.37" width="136.431" height="136.431" stroke="url(#paint64_linear_80_242)"/>
<path d="M282.279 1157.57V1021.21L372.096 987.036V1123.4L282.279 1157.57Z" stroke="url(#paint65_linear_80_242)"/>
<path d="M916.572 1245.5L1010.84 1211.13H1146.39L1052.12 1245.5H916.572Z" stroke="url(#paint66_linear_80_242)"/>
<rect x="914.24" y="1253.73" width="136.431" height="136.431" stroke="url(#paint67_linear_80_242)"/>
<path d="M1058.91 1389.93V1253.57L1148.72 1219.4V1355.76L1058.91 1389.93Z" stroke="url(#paint68_linear_80_242)"/>
<path d="M421.5 1326.09L515.767 1291.73H651.318L557.051 1326.09H421.5Z" stroke="url(#paint69_linear_80_242)"/>
<rect x="419.168" y="1334.32" width="136.431" height="136.431" stroke="url(#paint70_linear_80_242)"/>
<path d="M563.834 1470.53V1334.17L653.651 1299.99V1436.35L563.834 1470.53Z" stroke="url(#paint71_linear_80_242)"/>
<path d="M744.918 737.862L839.184 703.5H974.736L880.469 737.862H744.918Z" stroke="url(#paint72_linear_80_242)"/>
<rect x="742.586" y="746.095" width="136.431" height="136.431" stroke="url(#paint73_linear_80_242)"/>
<path d="M887.252 882.301V745.94L977.069 711.762V848.123L887.252 882.301Z" stroke="url(#paint74_linear_80_242)"/>
<path d="M249.843 818.456L344.11 784.093H479.661L385.395 818.456H249.843Z" stroke="url(#paint75_linear_80_242)"/>
<rect x="247.512" y="826.689" width="136.431" height="136.431" stroke="url(#paint76_linear_80_242)"/>
<path d="M392.178 962.895V826.534L481.995 792.355V928.717L392.178 962.895Z" stroke="url(#paint77_linear_80_242)"/>
<path d="M1026.47 1050.82L1120.74 1016.45H1256.29L1162.02 1050.82H1026.47Z" stroke="url(#paint78_linear_80_242)"/>
<rect x="1024.14" y="1059.05" width="136.431" height="136.431" stroke="url(#paint79_linear_80_242)"/>
<path d="M1168.81 1195.26V1058.89L1258.62 1024.72V1161.08L1168.81 1195.26Z" stroke="url(#paint80_linear_80_242)"/>
<path d="M531.4 1131.41L625.667 1097.05H761.218L666.951 1131.41H531.4Z" stroke="url(#paint81_linear_80_242)"/>
<rect x="529.068" y="1139.64" width="136.431" height="136.431" stroke="url(#paint82_linear_80_242)"/>
<path d="M673.734 1275.85V1139.49L763.551 1105.31V1241.67L673.734 1275.85Z" stroke="url(#paint83_linear_80_242)"/>
<path d="M882.033 894.862L976.3 860.5H1111.85L1017.58 894.862H882.033Z" stroke="url(#paint84_linear_80_242)"/>
<rect x="879.701" y="903.096" width="136.431" height="136.431" stroke="url(#paint85_linear_80_242)"/>
<path d="M1024.37 1039.3V902.94L1114.18 868.762V1005.12L1024.37 1039.3Z" stroke="url(#paint86_linear_80_242)"/>
<path d="M386.959 975.456L481.226 941.094H616.777L522.51 975.456H386.959Z" stroke="url(#paint87_linear_80_242)"/>
<rect x="384.627" y="983.689" width="136.431" height="136.431" stroke="url(#paint88_linear_80_242)"/>
<path d="M529.293 1119.89V983.534L619.11 949.356V1085.72L529.293 1119.89Z" stroke="url(#paint89_linear_80_242)"/>
<path d="M1163.59 1207.82L1257.85 1173.45H1393.4L1299.14 1207.82H1163.59Z" stroke="url(#paint90_linear_80_242)"/>
<rect x="1161.25" y="1216.05" width="136.431" height="136.431" stroke="url(#paint91_linear_80_242)"/>
<path d="M1305.92 1352.25V1215.89L1395.74 1181.72V1318.08L1305.92 1352.25Z" stroke="url(#paint92_linear_80_242)"/>
<path d="M668.509 1288.41L762.776 1254.05H898.327L804.061 1288.41H668.509Z" stroke="url(#paint93_linear_80_242)"/>
<rect x="666.178" y="1296.64" width="136.431" height="136.431" stroke="url(#paint94_linear_80_242)"/>
<path d="M810.844 1432.85V1296.49L900.661 1262.31V1398.67L810.844 1432.85Z" stroke="url(#paint95_linear_80_242)"/>
</g>
<defs>
<linearGradient id="paint0_linear_80_242" x1="612.815" y1="37.6801" x2="612.815" y2="73.0424" gradientUnits="userSpaceOnUse">
<stop/>
<stop offset="1" stop-opacity="0"/>
</linearGradient>
<linearGradient id="paint1_linear_80_242" x1="563.79" y1="80.2756" x2="563.79" y2="217.707" gradientUnits="userSpaceOnUse">
<stop/>
<stop offset="1" stop-opacity="0"/>
</linearGradient>
<linearGradient id="paint2_linear_80_242" x1="685.149" y1="45.7169" x2="685.149" y2="217.707" gradientUnits="userSpaceOnUse">
<stop/>
<stop offset="1" stop-opacity="0"/>
</linearGradient>
<linearGradient id="paint3_linear_80_242" x1="117.741" y1="118.273" x2="117.741" y2="153.636" gradientUnits="userSpaceOnUse">
<stop/>
<stop offset="1" stop-opacity="0"/>
</linearGradient>
<linearGradient id="paint4_linear_80_242" x1="68.7155" y1="160.869" x2="68.7155" y2="298.3" gradientUnits="userSpaceOnUse">
<stop/>
<stop offset="1" stop-opacity="0"/>
</linearGradient>
<linearGradient id="paint5_linear_80_242" x1="190.075" y1="126.31" x2="190.075" y2="298.3" gradientUnits="userSpaceOnUse">
<stop/>
<stop offset="1" stop-opacity="0"/>
</linearGradient>
<linearGradient id="paint6_linear_80_242" x1="894.368" y1="350.633" x2="894.368" y2="385.996" gradientUnits="userSpaceOnUse">
<stop/>
<stop offset="1" stop-opacity="0"/>
</linearGradient>
<linearGradient id="paint7_linear_80_242" x1="845.342" y1="393.229" x2="845.342" y2="530.66" gradientUnits="userSpaceOnUse">
<stop/>
<stop offset="1" stop-opacity="0"/>
</linearGradient>
<linearGradient id="paint8_linear_80_242" x1="966.701" y1="358.67" x2="966.701" y2="530.66" gradientUnits="userSpaceOnUse">
<stop/>
<stop offset="1" stop-opacity="0"/>
</linearGradient>
<linearGradient id="paint9_linear_80_242" x1="399.291" y1="431.227" x2="399.291" y2="466.589" gradientUnits="userSpaceOnUse">
<stop/>
<stop offset="1" stop-opacity="0"/>
</linearGradient>
<linearGradient id="paint10_linear_80_242" x1="350.266" y1="473.822" x2="350.266" y2="611.253" gradientUnits="userSpaceOnUse">
<stop/>
<stop offset="1" stop-opacity="0"/>
</linearGradient>
<linearGradient id="paint11_linear_80_242" x1="471.625" y1="439.264" x2="471.625" y2="611.253" gradientUnits="userSpaceOnUse">
<stop/>
<stop offset="1" stop-opacity="0"/>
</linearGradient>
<linearGradient id="paint12_linear_80_242" x1="749.93" y1="194.68" x2="749.93" y2="230.042" gradientUnits="userSpaceOnUse">
<stop/>
<stop offset="1" stop-opacity="0"/>
</linearGradient>
<linearGradient id="paint13_linear_80_242" x1="700.905" y1="237.276" x2="700.905" y2="374.707" gradientUnits="userSpaceOnUse">
<stop/>
<stop offset="1" stop-opacity="0"/>
</linearGradient>
<linearGradient id="paint14_linear_80_242" x1="822.264" y1="202.717" x2="822.264" y2="374.707" gradientUnits="userSpaceOnUse">
<stop/>
<stop offset="1" stop-opacity="0"/>
</linearGradient>
<linearGradient id="paint15_linear_80_242" x1="254.854" y1="275.273" x2="254.854" y2="310.636" gradientUnits="userSpaceOnUse">
<stop/>
<stop offset="1" stop-opacity="0"/>
</linearGradient>
<linearGradient id="paint16_linear_80_242" x1="205.829" y1="317.869" x2="205.829" y2="455.3" gradientUnits="userSpaceOnUse">
<stop/>
<stop offset="1" stop-opacity="0"/>
</linearGradient>
<linearGradient id="paint17_linear_80_242" x1="327.188" y1="283.31" x2="327.188" y2="455.3" gradientUnits="userSpaceOnUse">
<stop/>
<stop offset="1" stop-opacity="0"/>
</linearGradient>
<linearGradient id="paint18_linear_80_242" x1="1031.48" y1="507.633" x2="1031.48" y2="542.996" gradientUnits="userSpaceOnUse">
<stop/>
<stop offset="1" stop-opacity="0"/>
</linearGradient>
<linearGradient id="paint19_linear_80_242" x1="982.456" y1="550.229" x2="982.456" y2="687.66" gradientUnits="userSpaceOnUse">
<stop/>
<stop offset="1" stop-opacity="0"/>
</linearGradient>
<linearGradient id="paint20_linear_80_242" x1="1103.81" y1="515.67" x2="1103.81" y2="687.66" gradientUnits="userSpaceOnUse">
<stop/>
<stop offset="1" stop-opacity="0"/>
</linearGradient>
<linearGradient id="paint21_linear_80_242" x1="536.409" y1="588.227" x2="536.409" y2="623.589" gradientUnits="userSpaceOnUse">
<stop/>
<stop offset="1" stop-opacity="0"/>
</linearGradient>
<linearGradient id="paint22_linear_80_242" x1="487.384" y1="630.823" x2="487.384" y2="768.254" gradientUnits="userSpaceOnUse">
<stop/>
<stop offset="1" stop-opacity="0"/>
</linearGradient>
<linearGradient id="paint23_linear_80_242" x1="608.743" y1="596.264" x2="608.743" y2="768.253" gradientUnits="userSpaceOnUse">
<stop/>
<stop offset="1" stop-opacity="0"/>
</linearGradient>
<linearGradient id="paint24_linear_80_242" x1="859.827" y1="0" x2="859.827" y2="35.3624" gradientUnits="userSpaceOnUse">
<stop/>
<stop offset="1" stop-opacity="0"/>
</linearGradient>
<linearGradient id="paint25_linear_80_242" x1="810.801" y1="42.5956" x2="810.801" y2="180.027" gradientUnits="userSpaceOnUse">
<stop/>
<stop offset="1" stop-opacity="0"/>
</linearGradient>
<linearGradient id="paint26_linear_80_242" x1="932.16" y1="8.03687" x2="932.16" y2="180.027" gradientUnits="userSpaceOnUse">
<stop/>
<stop offset="1" stop-opacity="0"/>
</linearGradient>
<linearGradient id="paint27_linear_80_242" x1="364.752" y1="80.5934" x2="364.752" y2="115.956" gradientUnits="userSpaceOnUse">
<stop/>
<stop offset="1" stop-opacity="0"/>
</linearGradient>
<linearGradient id="paint28_linear_80_242" x1="315.727" y1="123.189" x2="315.727" y2="260.62" gradientUnits="userSpaceOnUse">
<stop/>
<stop offset="1" stop-opacity="0"/>
</linearGradient>
<linearGradient id="paint29_linear_80_242" x1="437.086" y1="88.6302" x2="437.086" y2="260.62" gradientUnits="userSpaceOnUse">
<stop/>
<stop offset="1" stop-opacity="0"/>
</linearGradient>
<linearGradient id="paint30_linear_80_242" x1="1141.38" y1="312.953" x2="1141.38" y2="348.316" gradientUnits="userSpaceOnUse">
<stop/>
<stop offset="1" stop-opacity="0"/>
</linearGradient>
<linearGradient id="paint31_linear_80_242" x1="1092.36" y1="355.549" x2="1092.36" y2="492.98" gradientUnits="userSpaceOnUse">
<stop/>
<stop offset="1" stop-opacity="0"/>
</linearGradient>
<linearGradient id="paint32_linear_80_242" x1="1213.72" y1="320.99" x2="1213.72" y2="492.98" gradientUnits="userSpaceOnUse">
<stop/>
<stop offset="1" stop-opacity="0"/>
</linearGradient>
<linearGradient id="paint33_linear_80_242" x1="646.309" y1="393.547" x2="646.309" y2="428.909" gradientUnits="userSpaceOnUse">
<stop/>
<stop offset="1" stop-opacity="0"/>
</linearGradient>
<linearGradient id="paint34_linear_80_242" x1="597.284" y1="436.142" x2="597.284" y2="573.573" gradientUnits="userSpaceOnUse">
<stop/>
<stop offset="1" stop-opacity="0"/>
</linearGradient>
<linearGradient id="paint35_linear_80_242" x1="718.643" y1="401.583" x2="718.643" y2="573.573" gradientUnits="userSpaceOnUse">
<stop/>
<stop offset="1" stop-opacity="0"/>
</linearGradient>
<linearGradient id="paint36_linear_80_242" x1="996.942" y1="157" x2="996.942" y2="192.362" gradientUnits="userSpaceOnUse">
<stop/>
<stop offset="1" stop-opacity="0"/>
</linearGradient>
<linearGradient id="paint37_linear_80_242" x1="947.917" y1="199.596" x2="947.917" y2="337.027" gradientUnits="userSpaceOnUse">
<stop/>
<stop offset="1" stop-opacity="0"/>
</linearGradient>
<linearGradient id="paint38_linear_80_242" x1="1069.28" y1="165.037" x2="1069.28" y2="337.027" gradientUnits="userSpaceOnUse">
<stop/>
<stop offset="1" stop-opacity="0"/>
</linearGradient>
<linearGradient id="paint39_linear_80_242" x1="501.868" y1="237.593" x2="501.868" y2="272.956" gradientUnits="userSpaceOnUse">
<stop/>
<stop offset="1" stop-opacity="0"/>
</linearGradient>
<linearGradient id="paint40_linear_80_242" x1="452.842" y1="280.189" x2="452.842" y2="417.62" gradientUnits="userSpaceOnUse">
<stop/>
<stop offset="1" stop-opacity="0"/>
</linearGradient>
<linearGradient id="paint41_linear_80_242" x1="574.201" y1="245.63" x2="574.201" y2="417.62" gradientUnits="userSpaceOnUse">
<stop/>
<stop offset="1" stop-opacity="0"/>
</linearGradient>
<linearGradient id="paint42_linear_80_242" x1="1278.49" y1="469.953" x2="1278.49" y2="505.316" gradientUnits="userSpaceOnUse">
<stop/>
<stop offset="1" stop-opacity="0"/>
</linearGradient>
<linearGradient id="paint43_linear_80_242" x1="1229.47" y1="512.549" x2="1229.47" y2="649.98" gradientUnits="userSpaceOnUse">
<stop/>
<stop offset="1" stop-opacity="0"/>
</linearGradient>
<linearGradient id="paint44_linear_80_242" x1="1350.83" y1="477.99" x2="1350.83" y2="649.98" gradientUnits="userSpaceOnUse">
<stop/>
<stop offset="1" stop-opacity="0"/>
</linearGradient>
<linearGradient id="paint45_linear_80_242" x1="783.418" y1="550.547" x2="783.418" y2="585.909" gradientUnits="userSpaceOnUse">
<stop/>
<stop offset="1" stop-opacity="0"/>
</linearGradient>
<linearGradient id="paint46_linear_80_242" x1="734.393" y1="593.143" x2="734.393" y2="730.574" gradientUnits="userSpaceOnUse">
<stop/>
<stop offset="1" stop-opacity="0"/>
</linearGradient>
<linearGradient id="paint47_linear_80_242" x1="855.752" y1="558.584" x2="855.752" y2="730.574" gradientUnits="userSpaceOnUse">
<stop/>
<stop offset="1" stop-opacity="0"/>
</linearGradient>
<linearGradient id="paint48_linear_80_242" x1="612.815" y1="740.68" x2="612.815" y2="776.043" gradientUnits="userSpaceOnUse">
<stop/>
<stop offset="1" stop-opacity="0"/>
</linearGradient>
<linearGradient id="paint49_linear_80_242" x1="563.79" y1="783.276" x2="563.79" y2="920.707" gradientUnits="userSpaceOnUse">
<stop/>
<stop offset="1" stop-opacity="0"/>
</linearGradient>
<linearGradient id="paint50_linear_80_242" x1="685.149" y1="748.717" x2="685.149" y2="920.707" gradientUnits="userSpaceOnUse">
<stop/>
<stop offset="1" stop-opacity="0"/>
</linearGradient>
<linearGradient id="paint51_linear_80_242" x1="117.741" y1="821.273" x2="117.741" y2="856.636" gradientUnits="userSpaceOnUse">
<stop/>
<stop offset="1" stop-opacity="0"/>
</linearGradient>
<linearGradient id="paint52_linear_80_242" x1="68.7155" y1="863.869" x2="68.7155" y2="1001.3" gradientUnits="userSpaceOnUse">
<stop/>
<stop offset="1" stop-opacity="0"/>
</linearGradient>
<linearGradient id="paint53_linear_80_242" x1="190.075" y1="829.31" x2="190.075" y2="1001.3" gradientUnits="userSpaceOnUse">
<stop/>
<stop offset="1" stop-opacity="0"/>
</linearGradient>
<linearGradient id="paint54_linear_80_242" x1="894.368" y1="1053.63" x2="894.368" y2="1089" gradientUnits="userSpaceOnUse">
<stop/>
<stop offset="1" stop-opacity="0"/>
</linearGradient>
<linearGradient id="paint55_linear_80_242" x1="845.342" y1="1096.23" x2="845.342" y2="1233.66" gradientUnits="userSpaceOnUse">
<stop/>
<stop offset="1" stop-opacity="0"/>
</linearGradient>
<linearGradient id="paint56_linear_80_242" x1="966.701" y1="1061.67" x2="966.701" y2="1233.66" gradientUnits="userSpaceOnUse">
<stop/>
<stop offset="1" stop-opacity="0"/>
</linearGradient>
<linearGradient id="paint57_linear_80_242" x1="399.291" y1="1134.23" x2="399.291" y2="1169.59" gradientUnits="userSpaceOnUse">
<stop/>
<stop offset="1" stop-opacity="0"/>
</linearGradient>
<linearGradient id="paint58_linear_80_242" x1="350.266" y1="1176.82" x2="350.266" y2="1314.25" gradientUnits="userSpaceOnUse">
<stop/>
<stop offset="1" stop-opacity="0"/>
</linearGradient>
<linearGradient id="paint59_linear_80_242" x1="471.625" y1="1142.26" x2="471.625" y2="1314.25" gradientUnits="userSpaceOnUse">
<stop/>
<stop offset="1" stop-opacity="0"/>
</linearGradient>
<linearGradient id="paint60_linear_80_242" x1="749.93" y1="897.68" x2="749.93" y2="933.042" gradientUnits="userSpaceOnUse">
<stop/>
<stop offset="1" stop-opacity="0"/>
</linearGradient>
<linearGradient id="paint61_linear_80_242" x1="700.905" y1="940.275" x2="700.905" y2="1077.71" gradientUnits="userSpaceOnUse">
<stop/>
<stop offset="1" stop-opacity="0"/>
</linearGradient>
<linearGradient id="paint62_linear_80_242" x1="822.264" y1="905.717" x2="822.264" y2="1077.71" gradientUnits="userSpaceOnUse">
<stop/>
<stop offset="1" stop-opacity="0"/>
</linearGradient>
<linearGradient id="paint63_linear_80_242" x1="254.854" y1="978.273" x2="254.854" y2="1013.64" gradientUnits="userSpaceOnUse">
<stop/>
<stop offset="1" stop-opacity="0"/>
</linearGradient>
<linearGradient id="paint64_linear_80_242" x1="205.829" y1="1020.87" x2="205.829" y2="1158.3" gradientUnits="userSpaceOnUse">
<stop/>
<stop offset="1" stop-opacity="0"/>
</linearGradient>
<linearGradient id="paint65_linear_80_242" x1="327.188" y1="986.31" x2="327.188" y2="1158.3" gradientUnits="userSpaceOnUse">
<stop/>
<stop offset="1" stop-opacity="0"/>
</linearGradient>
<linearGradient id="paint66_linear_80_242" x1="1031.48" y1="1210.63" x2="1031.48" y2="1246" gradientUnits="userSpaceOnUse">
<stop/>
<stop offset="1" stop-opacity="0"/>
</linearGradient>
<linearGradient id="paint67_linear_80_242" x1="982.456" y1="1253.23" x2="982.456" y2="1390.66" gradientUnits="userSpaceOnUse">
<stop/>
<stop offset="1" stop-opacity="0"/>
</linearGradient>
<linearGradient id="paint68_linear_80_242" x1="1103.81" y1="1218.67" x2="1103.81" y2="1390.66" gradientUnits="userSpaceOnUse">
<stop/>
<stop offset="1" stop-opacity="0"/>
</linearGradient>
<linearGradient id="paint69_linear_80_242" x1="536.409" y1="1291.23" x2="536.409" y2="1326.59" gradientUnits="userSpaceOnUse">
<stop/>
<stop offset="1" stop-opacity="0"/>
</linearGradient>
<linearGradient id="paint70_linear_80_242" x1="487.384" y1="1333.82" x2="487.384" y2="1471.25" gradientUnits="userSpaceOnUse">
<stop/>
<stop offset="1" stop-opacity="0"/>
</linearGradient>
<linearGradient id="paint71_linear_80_242" x1="608.743" y1="1299.26" x2="608.743" y2="1471.25" gradientUnits="userSpaceOnUse">
<stop/>
<stop offset="1" stop-opacity="0"/>
</linearGradient>
<linearGradient id="paint72_linear_80_242" x1="859.827" y1="703" x2="859.827" y2="738.362" gradientUnits="userSpaceOnUse">
<stop/>
<stop offset="1" stop-opacity="0"/>
</linearGradient>
<linearGradient id="paint73_linear_80_242" x1="810.801" y1="745.595" x2="810.801" y2="883.027" gradientUnits="userSpaceOnUse">
<stop/>
<stop offset="1" stop-opacity="0"/>
</linearGradient>
<linearGradient id="paint74_linear_80_242" x1="932.16" y1="711.037" x2="932.16" y2="883.027" gradientUnits="userSpaceOnUse">
<stop/>
<stop offset="1" stop-opacity="0"/>
</linearGradient>
<linearGradient id="paint75_linear_80_242" x1="364.752" y1="783.593" x2="364.752" y2="818.956" gradientUnits="userSpaceOnUse">
<stop/>
<stop offset="1" stop-opacity="0"/>
</linearGradient>
<linearGradient id="paint76_linear_80_242" x1="315.727" y1="826.189" x2="315.727" y2="963.62" gradientUnits="userSpaceOnUse">
<stop/>
<stop offset="1" stop-opacity="0"/>
</linearGradient>
<linearGradient id="paint77_linear_80_242" x1="437.086" y1="791.63" x2="437.086" y2="963.62" gradientUnits="userSpaceOnUse">
<stop/>
<stop offset="1" stop-opacity="0"/>
</linearGradient>
<linearGradient id="paint78_linear_80_242" x1="1141.38" y1="1015.95" x2="1141.38" y2="1051.32" gradientUnits="userSpaceOnUse">
<stop/>
<stop offset="1" stop-opacity="0"/>
</linearGradient>
<linearGradient id="paint79_linear_80_242" x1="1092.36" y1="1058.55" x2="1092.36" y2="1195.98" gradientUnits="userSpaceOnUse">
<stop/>
<stop offset="1" stop-opacity="0"/>
</linearGradient>
<linearGradient id="paint80_linear_80_242" x1="1213.72" y1="1023.99" x2="1213.72" y2="1195.98" gradientUnits="userSpaceOnUse">
<stop/>
<stop offset="1" stop-opacity="0"/>
</linearGradient>
<linearGradient id="paint81_linear_80_242" x1="646.309" y1="1096.55" x2="646.309" y2="1131.91" gradientUnits="userSpaceOnUse">
<stop/>
<stop offset="1" stop-opacity="0"/>
</linearGradient>
<linearGradient id="paint82_linear_80_242" x1="597.284" y1="1139.14" x2="597.284" y2="1276.57" gradientUnits="userSpaceOnUse">
<stop/>
<stop offset="1" stop-opacity="0"/>
</linearGradient>
<linearGradient id="paint83_linear_80_242" x1="718.643" y1="1104.58" x2="718.643" y2="1276.57" gradientUnits="userSpaceOnUse">
<stop/>
<stop offset="1" stop-opacity="0"/>
</linearGradient>
<linearGradient id="paint84_linear_80_242" x1="996.942" y1="860" x2="996.942" y2="895.362" gradientUnits="userSpaceOnUse">
<stop/>
<stop offset="1" stop-opacity="0"/>
</linearGradient>
<linearGradient id="paint85_linear_80_242" x1="947.917" y1="902.596" x2="947.917" y2="1040.03" gradientUnits="userSpaceOnUse">
<stop/>
<stop offset="1" stop-opacity="0"/>
</linearGradient>
<linearGradient id="paint86_linear_80_242" x1="1069.28" y1="868.037" x2="1069.28" y2="1040.03" gradientUnits="userSpaceOnUse">
<stop/>
<stop offset="1" stop-opacity="0"/>
</linearGradient>
<linearGradient id="paint87_linear_80_242" x1="501.868" y1="940.594" x2="501.868" y2="975.956" gradientUnits="userSpaceOnUse">
<stop/>
<stop offset="1" stop-opacity="0"/>
</linearGradient>
<linearGradient id="paint88_linear_80_242" x1="452.842" y1="983.189" x2="452.842" y2="1120.62" gradientUnits="userSpaceOnUse">
<stop/>
<stop offset="1" stop-opacity="0"/>
</linearGradient>
<linearGradient id="paint89_linear_80_242" x1="574.201" y1="948.63" x2="574.201" y2="1120.62" gradientUnits="userSpaceOnUse">
<stop/>
<stop offset="1" stop-opacity="0"/>
</linearGradient>
<linearGradient id="paint90_linear_80_242" x1="1278.49" y1="1172.95" x2="1278.49" y2="1208.32" gradientUnits="userSpaceOnUse">
<stop/>
<stop offset="1" stop-opacity="0"/>
</linearGradient>
<linearGradient id="paint91_linear_80_242" x1="1229.47" y1="1215.55" x2="1229.47" y2="1352.98" gradientUnits="userSpaceOnUse">
<stop/>
<stop offset="1" stop-opacity="0"/>
</linearGradient>
<linearGradient id="paint92_linear_80_242" x1="1350.83" y1="1180.99" x2="1350.83" y2="1352.98" gradientUnits="userSpaceOnUse">
<stop/>
<stop offset="1" stop-opacity="0"/>
</linearGradient>
<linearGradient id="paint93_linear_80_242" x1="783.418" y1="1253.55" x2="783.418" y2="1288.91" gradientUnits="userSpaceOnUse">
<stop/>
<stop offset="1" stop-opacity="0"/>
</linearGradient>
<linearGradient id="paint94_linear_80_242" x1="734.393" y1="1296.14" x2="734.393" y2="1433.57" gradientUnits="userSpaceOnUse">
<stop/>
<stop offset="1" stop-opacity="0"/>
</linearGradient>
<linearGradient id="paint95_linear_80_242" x1="855.752" y1="1261.58" x2="855.752" y2="1433.57" gradientUnits="userSpaceOnUse">
<stop/>
<stop offset="1" stop-opacity="0"/>
</linearGradient>
</defs>
</svg>
