<svg width="101" height="101" viewBox="0 0 101 101" fill="none" xmlns="http://www.w3.org/2000/svg">
<circle cx="50.5" cy="50.5" r="50.5" fill="#D5D5D5" fill-opacity="0.5"/>
<circle cx="50.5" cy="50.5" r="50.5" fill="url(#paint0_linear_163_10)"/>
<path d="M32 23L40.769 44.1037C35.515 47.3385 32 53.0952 32 59.6667C32 69.7744 40.2983 78 50.5 78C60.7017 78 69 69.7744 69 59.6667C69 53.0972 65.485 47.3406 60.231 44.1037L69 23H64.5559L56.5146 42.3478C55.1449 41.8751 53.7235 41.5653 52.2801 41.425L59.9288 23H55.4847L47.7723 41.5574C46.6537 41.7197 45.5527 41.9843 44.4834 42.3478L36.4441 23H32ZM41.0691 23L46.2923 35.5767L48.5164 30.2254L45.5153 23H41.0691ZM50.5 45.4074C58.4324 45.4074 64.8889 51.8037 64.8889 59.6667C64.8889 67.5296 58.4324 73.9259 50.5 73.9259C42.5676 73.9259 36.1111 67.5296 36.1111 59.6667C36.1111 51.8037 42.5676 45.4074 50.5 45.4074ZM50.5 51.8485L48.0991 57.1856L42.2778 57.817L46.6356 61.6956L45.4084 67.4196L50.5 64.5107L55.5916 67.4237L54.3665 61.6996L58.7222 57.815L52.9009 57.1835L50.5 51.8465V51.8485Z" fill="#1E1E1E"/>
<defs>
<linearGradient id="paint0_linear_163_10" x1="50.5" y1="0" x2="50.5" y2="101" gradientUnits="userSpaceOnUse">
<stop stop-color="#E2E2E2"/>
<stop offset="1" stop-color="#D5D5D5"/>
</linearGradient>
</defs>
</svg>
